<?xml version="1.0" encoding="UTF-8" standalone="no"?>
<!-- Created with Inkscape (http://www.inkscape.org/) -->

<svg
   width="53.092781"
   height="15.024"
   viewBox="0 0 53.092781 15.024"
   version="1.1"
   id="svg1"
   sodipodi:docname="selenite-logo-white.svg"
   xmlns:inkscape="http://www.inkscape.org/namespaces/inkscape"
   xmlns:sodipodi="http://sodipodi.sourceforge.net/DTD/sodipodi-0.dtd"
   xmlns="http://www.w3.org/2000/svg"
   xmlns:svg="http://www.w3.org/2000/svg">
  <sodipodi:namedview
     id="namedview1"
     pagecolor="#505050"
     bordercolor="#eeeeee"
     borderopacity="1"
     inkscape:showpageshadow="0"
     inkscape:pageopacity="0"
     inkscape:pagecheckerboard="0"
     inkscape:deskcolor="#d1d1d1" />
  <defs
     id="defs1" />
  <g
     id="layer1"
     transform="translate(-123.94036,-83.283712)">
    <path
       style="font-size:24px;line-height:1.25;font-family:'Island Moments';-inkscape-font-specification:'Island Moments';fill:#ffffff"
       d="m 129.77716,98.307712 -0.216,-0.072 q -0.024,0.072 -0.12,0.048 -0.072,0 -0.12,-0.048 -0.12,-0.192 -0.264,-0.168 -0.144,0.048 -0.384,-0.048 h -0.024 q -0.072,0 -0.168,0.024 -0.072,0.048 -0.144,0.024 l -0.168,-0.144 q 0,0.024 -0.048,0.024 -0.072,0 -0.144,-0.024 -0.072,-0.024 -0.048,-0.048 l -0.408,-0.216 -0.048,0.024 -0.264,-0.288 q -0.024,0.024 -0.048,0.024 -0.048,0 -0.096,-0.072 -0.048,-0.048 -0.072,-0.048 -0.144,-0.12 -0.336,-0.24 -0.168,-0.096 -0.336,-0.216 -0.024,-0.024 -0.024,-0.096 0,-0.048 -0.048,-0.072 -0.072,-0.072 -0.168,-0.144 -0.096,-0.072 -0.12,-0.168 l -0.096,0.024 q -0.144,-0.264 -0.336,-0.48 -0.192,-0.216 -0.168,-0.576 h -0.048 l -0.312,-0.12 v -0.072 q -0.024,0 -0.072,0.024 -0.048,0 -0.12,-0.024 -0.168,-0.072 -0.312,-0.168 -0.144,-0.12 -0.216,-0.288 -0.024,-0.072 -0.072,-0.072 -0.024,0 -0.048,-0.024 -0.048,-0.12 -0.144,-0.216 -0.096,-0.096 -0.072,-0.24 l 0.072,-0.6 q 0.192,-0.216 0.288,-0.216 0.096,0 0.096,0.216 l -0.144,0.24 0.024,0.288 q 0.048,0.048 0.144,0.048 0.096,0 0.144,-0.024 l -0.024,0.144 0.096,0.168 0.024,-0.048 0.144,0.048 0.12,0.168 q 0.048,-0.096 0.096,0 0.048,0.072 0.048,0.072 l 0.12,-0.096 q -0.024,-0.12 -0.048,-0.24 -0.024,-0.144 -0.024,-0.264 0,-0.168 0.024,-0.24 0.072,-0.264 0.048,-0.408 0,0 0.096,-0.168 0.096,-0.192 0.192,-0.24 l 0.192,-0.12 0.048,0.072 q -0.024,0.024 -0.096,0.144 -0.072,0.12 -0.12,0.168 -0.192,0.408 -0.144,0.816 0,0.024 0,0.072 0.024,0.024 0,0.096 v 0.336 q 0.048,0.024 0.048,0.192 0,0.144 0.048,0.12 0.12,-0.024 0.192,0.072 0.096,0.072 0.144,-0.072 l 0.168,0.192 h 0.24 q -0.024,0.048 0.12,0.096 0.168,0.024 0.336,0.024 0.168,0 0.168,0 l 0.144,0.12 q 0,-0.024 0.072,0.048 h 0.024 q 0.072,0 0.144,-0.048 0.096,-0.048 0.144,-0.048 0.12,0.024 0.24,0.096 0.144,0.072 0.216,0 l 0.192,0.072 0.216,-0.12 q 0.048,0.048 0.192,0.096 0.048,0.024 0.144,0.024 0.216,0 0.312,-0.096 l 0.096,0.12 q 0.336,-0.024 0.672,0 0.36,0 0.672,0 0.264,0 0.504,0 0.264,-0.024 0.504,-0.048 0.072,0 0.12,0 0.048,-0.024 0.072,-0.024 0.168,0 0.384,-0.096 0.216,-0.096 0.36,-0.096 0.048,0 0.216,-0.072 0.192,-0.096 0.12,0.12 l -0.24,0.12 -0.072,-0.024 q -0.024,0.024 -0.216,0.12 -0.168,0.072 -0.192,0.024 l -0.504,0.072 q -0.096,0.024 -0.288,0.048 -0.192,0.024 -0.192,0 l -0.216,0.048 q 0,-0.024 -0.048,-0.024 -0.096,0 -0.288,0.072 -0.168,0.072 -0.192,0.048 -0.024,-0.048 -0.24,0 -0.192,0.024 -0.384,0.024 -0.288,0 -0.312,-0.096 l -0.192,0.072 q 0.048,-0.048 -0.048,-0.048 -0.072,-0.024 -0.12,0 l -0.024,0.12 q -0.048,0.024 -0.096,0 -0.048,-0.024 -0.096,-0.048 -0.144,-0.072 -0.456,-0.072 -0.312,0 -0.6,-0.024 -0.288,-0.024 -0.36,-0.12 l -0.192,0.096 q -0.096,0 -0.288,-0.024 -0.168,-0.048 -0.264,-0.072 -0.168,-0.048 -0.384,-0.096 -0.192,-0.048 -0.384,-0.024 l 0.12,0.192 v 0.048 q 0.168,0.096 0.264,0.312 0.12,0.192 0.36,0.144 l 0.072,0.312 0.192,0.12 q 0,0 0,0 0.024,-0.024 0.048,-0.024 0.072,0 0.24,0.096 0.168,0.096 0.264,0.144 l 0.072,-0.048 0.12,0.216 q 0.024,-0.024 0.048,-0.024 0.072,0 0.168,0.048 0.096,0.048 0.12,0.024 l 0.168,0.048 0.168,-0.048 q 0.096,0.144 0.12,0.216 0.024,0.072 0.072,0.096 0.12,0.048 0,0.072 -0.096,0.024 -0.096,0.072 l 0.024,0.048 h 0.216 q 0,-0.072 0.168,-0.12 0.192,-0.024 0.384,-0.024 0.288,0 0.336,0.048 0.096,0.048 0.048,0 l 0.216,-0.024 0.144,0.12 q 0.048,-0.072 0.096,-0.072 0.072,0 0.12,0.024 0.072,0.048 0.072,0.048 0.048,0.024 0.096,-0.096 0.072,-0.096 0.168,-0.072 l 0.096,0.024 q 0.168,0 0.336,-0.048 0.192,-0.048 0.216,0.096 l 0.168,-0.12 0.12,0.024 -0.048,0.192 q 0,0.096 0.024,0.096 0.048,0 0.12,-0.168 0.096,-0.144 0.096,-0.024 l 0.168,-0.192 q 0.072,0.048 0.192,0.048 0.192,0 0.36,-0.144 0.168,-0.12 0.408,-0.168 l 0.024,0.048 q 0.048,-0.024 0.096,-0.048 0.072,0 0.072,0.048 l 0.264,-0.024 q 0.096,-0.072 0.312,-0.168 0.24,-0.096 0.336,-0.144 l 0.024,-0.096 q 0,0 0.12,0 0.144,-0.024 0.168,-0.048 v -0.024 q 0,-0.048 0,-0.144 0,-0.12 0.096,-0.096 l 0.12,0.072 q 0.216,-0.072 0.288,-0.192 0.096,-0.144 0.288,-0.264 0.072,-0.048 0.12,-0.12 0.072,-0.072 0.168,-0.096 0.024,0 0.072,0.072 0.072,0.072 0.144,-0.024 l 0.024,-0.24 0.216,-0.072 0.12,-0.168 q 0,0 0,0.024 0.024,0 0.048,0 0.096,0 0.216,-0.192 0.12,-0.192 0.048,-0.264 l 0.24,-0.264 q -0.024,-0.144 0.096,-0.36 0.144,-0.216 0.144,-0.528 0,-0.192 -0.12,-0.456 -0.12,-0.264 -0.48,-0.576 l -0.12,-0.072 q -0.288,-0.192 -0.528,-0.288 -0.216,-0.12 -0.576,-0.24 0,0 -0.072,-0.048 l -0.672,-0.192 q -0.096,-0.072 -0.432,-0.12 -0.336,-0.048 -0.456,-0.072 -0.048,-0.024 -0.12,-0.072 -0.048,-0.048 -0.096,0.024 l -0.216,-0.12 q -0.048,0.024 -0.12,0.024 -0.048,0 -0.096,-0.024 -0.024,-0.024 -0.144,-0.024 -0.168,-0.024 -0.552,-0.144 -0.36,-0.12 -0.408,-0.072 l -0.624,-0.312 -0.072,0.024 -0.216,-0.12 q 0.072,0.096 -0.096,0.048 -0.168,-0.072 -0.384,-0.168 -0.216,-0.12 -0.336,-0.144 -0.408,-0.168 -0.744,-0.48 -0.312,-0.312 -0.312,-0.768 0,-0.408 0.048,-0.576 0.048,-0.168 0.12,-0.288 0.096,-0.12 0.168,-0.36 0.048,-0.072 0.12,-0.144 0.096,-0.096 0.12,-0.192 l 0.192,-0.12 q 0.024,-0.12 0.12,-0.24 0.12,-0.12 0.216,-0.168 0.312,-0.144 0.696,-0.48 0.408,-0.36 0.792,-0.528 0.096,-0.048 0.168,-0.072 0.072,-0.048 0.168,-0.072 l 0.024,0.048 q 0.216,-0.072 0.72,-0.216 0.504,-0.168 1.104,-0.336 0.624,-0.168 1.152,-0.288 0.552,-0.12 0.864,-0.12 0.216,0 0.24,0.072 l 0.288,-0.168 q 0.024,0.024 0.096,0.048 0.072,0 0.096,-0.024 l 0.24,0.072 q 0.096,-0.048 0.144,-0.048 0.144,0 0.312,0.096 0.192,0.072 0.288,0.048 0.12,-0.048 0.168,-0.024 0.072,0 0.144,0 h 0.096 q 0.072,0 0.144,0.024 0.096,0 0.192,0.096 l 0.12,0.024 q 0.072,0.072 0.072,0.168 0.048,0.096 0.288,0.12 0.24,0.024 0.312,0.096 0.192,0.144 0.216,0.48 0.048,0.312 0.048,0.576 -0.024,0.264 -0.216,0.648 -0.168,0.36 -0.432,0.576 -0.12,0.096 -0.36,0.216 -0.24,0.096 -0.36,0.168 -0.264,0.168 -0.576,0.168 -0.456,0 -0.456,-0.192 0,-0.072 0.168,-0.144 0.12,-0.048 0.216,-0.096 0.12,-0.072 0.216,-0.168 0.096,-0.048 0.12,-0.048 0.048,-0.024 0.072,-0.048 0.048,-0.024 0.072,-0.048 0.024,-0.048 0.096,-0.096 0.144,-0.12 0.36,-0.384 0.24,-0.288 0.336,-0.432 0.024,-0.12 0.096,-0.312 0.096,-0.216 0.096,-0.384 0,-0.144 -0.072,-0.216 -0.024,0 -0.024,-0.024 l -0.024,-0.048 q -0.192,-0.408 -0.768,-0.456 -0.552,-0.072 -0.936,-0.072 0,0 -0.048,-0.024 -0.048,-0.024 -0.048,0.024 l -0.528,0.048 -0.048,-0.048 -0.504,0.096 -0.048,-0.024 -0.528,0.144 q 0.024,-0.048 -0.024,-0.024 -0.048,0 -0.048,0 l -0.528,0.144 -0.024,-0.024 -0.24,0.144 q 0,-0.024 -0.024,-0.048 -0.024,-0.024 -0.024,-0.024 -0.024,0.024 -0.048,0.072 -0.024,0.024 -0.072,0.048 l -0.048,-0.024 -0.336,0.12 q 0,0.024 -0.096,0.024 -0.648,0.288 -1.416,0.672 -0.744,0.36 -1.152,1.032 l -0.048,-0.048 -0.216,0.192 q -0.024,0.024 -0.072,0.072 -0.024,0.048 -0.072,0.168 -0.072,0.192 -0.216,0.456 -0.12,0.264 -0.12,0.504 0,0.24 0.096,0.456 0.096,0.192 0.144,0.096 l 0.216,0.144 0.072,0.264 0.048,-0.024 0.312,0.24 h 0.048 l 0.384,0.312 0.288,0.168 h 0.192 l 0.288,0.096 q 0.048,0.024 0.072,0.072 0.048,0.024 0.12,-0.048 l 0.24,0.168 q 0.024,-0.024 0.072,-0.024 0.048,0 0.096,0.048 0.048,0.024 0.072,0.048 l 0.048,-0.024 0.84,0.336 q 0.048,-0.024 0.12,-0.024 0.12,0 0.192,0.048 0.096,0.024 0.192,0.048 0.048,0.024 0.12,0.072 0.096,0.048 0.096,0.072 0.048,0.024 0.096,0.024 0.072,0 0.12,0 l 0.216,0.072 0.216,0.12 0.216,0.024 q 0,0 0.192,0.096 0.216,0.072 0.432,0.144 0.24,0.072 0.264,0.096 l 0.144,0.144 0.024,-0.024 0.168,0.096 q 0.264,0.168 0.528,0.648 0.288,0.456 0.288,1.008 0,0.36 -0.12,0.72 -0.096,0.336 -0.24,0.552 -0.36,0.48 -0.792,0.864 -0.408,0.384 -0.744,0.648 -0.12,0.072 -0.168,0.12 -0.048,0.048 -0.144,0.048 -0.072,0.024 -0.12,0.072 -0.336,0.192 -0.744,0.336 -0.408,0.168 -0.72,0.312 -0.144,0.048 -0.24,0.048 -0.096,0.024 -0.192,0.048 -0.024,0 -0.096,0.024 -0.048,0.048 -0.048,0.024 l -0.168,0.12 q -0.024,-0.024 -0.072,-0.024 -0.096,0 -0.216,0.096 -0.096,0.096 -0.192,0.072 h -0.024 q -0.072,0 -0.192,0.024 -0.096,0.048 -0.144,0 l -0.312,0.12 -0.048,-0.12 q -0.024,0 -0.072,0.048 -0.024,0.072 -0.072,0.072 0,0 -0.096,-0.048 -0.096,-0.048 -0.144,0.048 l -0.264,0.072 q -0.024,-0.096 -0.144,-0.096 -0.096,0 -0.168,0.072 l -0.192,-0.096 v 0.024 l -0.192,-0.024 z m 9.45601,-1.68 q -0.6,0 -1.056,-0.336 -0.456,-0.336 -0.456,-1.152 0,-0.312 0.072,-0.624 0.072,-0.336 0.168,-0.648 0.048,-0.312 0.144,-0.552 0.024,-0.096 0.024,-0.096 0.024,-0.024 0.12,-0.072 l 0.192,-0.288 v -0.096 q -0.024,0 -0.024,0 0,-0.024 0,-0.024 0,-0.072 0.12,-0.168 0.12,-0.096 0.12,-0.096 0.024,-0.12 0.072,-0.12 0.048,0 0.12,-0.072 h 0.264 v -0.048 q 0,-0.12 -0.12,-0.096 -0.096,0 -0.096,-0.024 0,-0.024 0.072,-0.096 0.096,-0.096 0.12,-0.12 0.072,-0.096 0.12,-0.168 0.048,-0.096 0.144,-0.144 0.432,-0.528 0.528,-0.672 0.12,-0.144 0.24,-0.216 0.048,0 0.072,0.048 0.048,0.024 0,0.072 0.048,0.072 0.072,0.024 0.048,-0.048 0.048,-0.048 l 0.096,-0.048 q -0.048,-0.048 -0.048,-0.12 0,-0.12 0.048,-0.192 0.048,-0.096 0.168,-0.192 0.144,-0.096 0.144,-0.12 0.144,-0.048 0.216,-0.096 0.096,-0.048 0.192,-0.048 0.168,0 0.336,0.12 0.456,0.24 0.768,0.48 0.312,0.24 0.312,0.672 0,0.456 -0.384,0.792 -0.36,0.312 -0.888,0.528 -0.528,0.216 -1.056,0.36 -0.504,0.12 -0.792,0.192 -0.168,0.024 -0.168,0.144 0.024,0.096 -0.024,0.216 l -0.168,0.264 -0.144,0.336 -0.12,0.216 q -0.168,0.144 -0.12,0.216 0.048,0.072 0.168,-0.024 0.024,0.024 0.024,0.072 0,0.096 -0.048,0.24 -0.048,0.12 -0.072,0.192 -0.024,0.096 0,0.096 0.048,-0.024 0.048,0.096 l 0.024,0.336 q 0.144,0.456 0.648,0.528 0.048,0 0.096,0.024 0.072,0 0.12,0 0.432,0 0.456,-0.072 0.048,-0.072 0.12,-0.096 0.216,-0.048 0.36,-0.096 0.168,-0.048 0.336,-0.144 0.288,-0.12 0.552,-0.312 0.264,-0.192 0.552,-0.384 l 0.24,-0.168 q 0.024,-0.048 0,-0.072 -0.024,-0.024 0,-0.048 0.048,-0.024 0.072,0 0.048,0 0.072,-0.024 0.048,-0.024 0.096,-0.072 0.048,-0.072 0.096,-0.12 0.048,-0.048 0.048,-0.096 0.024,-0.048 0.072,-0.096 0.192,-0.192 0.384,-0.408 0.216,-0.216 0.36,-0.384 0.168,-0.24 0.264,-0.24 0.048,0 0.048,0.048 0,0.12 -0.168,0.36 -0.408,0.6 -0.936,1.176 -0.528,0.552 -1.152,1.008 -0.456,0.312 -1.08,0.552 -0.624,0.24 -1.248,0.24 z m 0.36,-3.864 q 0.36,-0.024 0.936,-0.192 0.576,-0.192 0.96,-0.504 0.408,-0.336 0.408,-0.744 0,-0.384 -0.408,-0.744 -0.336,0.24 -0.744,0.696 -0.384,0.432 -0.696,0.864 -0.312,0.408 -0.456,0.624 z m 3.672,3.888 q -0.144,0 -0.144,-0.168 0,-0.12 0.072,-0.288 0.192,-0.408 0.432,-1.152 0.264,-0.744 0.648,-1.272 0.12,-0.264 0.36,-0.648 0.264,-0.408 0.504,-0.96 v -0.12 q 0,-0.072 0,-0.12 0.024,-0.072 0.048,-0.144 0.096,-0.192 0.168,-0.264 0.096,-0.072 0.192,-0.264 0,-0.048 0,-0.096 0.024,-0.048 0.048,-0.096 -0.048,0.048 -0.024,-0.072 -0.048,0 0.096,-0.24 0.096,-0.216 0.144,-0.24 h 0.024 q 0.096,-0.144 0.168,-0.24 0.072,-0.12 0.048,-0.144 v -0.048 q 0,-0.168 0.096,-0.312 0.12,-0.144 0.216,-0.312 0.072,-0.096 0.12,-0.096 0.048,0 0.048,0.024 0.024,0 0.048,0 0.072,0 0.072,-0.12 0,-0.048 -0.024,-0.12 0,-0.072 -0.024,-0.168 0.024,-0.12 0.192,-0.192 l 0.072,-0.024 q 0.12,-0.504 0.288,-0.672 0.048,-0.048 0.096,-0.096 0.048,-0.048 0.096,-0.096 0.288,-0.312 0.432,-0.672 0.048,-0.096 0.12,-0.144 0.096,-0.072 0.168,-0.168 0.048,-0.072 0.024,-0.144 0,-0.096 0.024,-0.168 0.12,-0.192 0.168,-0.216 0.048,-0.024 0.096,-0.048 0.072,-0.048 0.24,-0.216 0.072,-0.12 0.144,-0.24 0.096,-0.12 0.192,-0.24 0.144,-0.168 0.312,-0.24 0.168,-0.072 0.336,-0.216 0.048,-0.048 0.048,-0.144 0,-0.12 0.048,-0.168 0.84,-0.672 1.8,-1.128 0.984,-0.456 1.512,-0.456 0.192,0 0.36,0.024 0.192,0.024 0.36,0.072 h 0.048 q 0.12,0 0.24,0.048 0.12,0.048 0.216,0.096 0.096,0 0.24,0.048 0.12,0.048 0.144,0.144 0.024,0.096 -0.048,0.144 -0.024,0.024 -0.072,0 -0.048,-0.024 -0.096,-0.024 -0.048,0 -0.096,-0.048 -0.048,-0.048 -0.096,-0.072 -0.096,0 -0.216,0.024 -0.096,0.024 -0.216,0.024 h -0.072 q -0.168,0 -0.24,-0.048 -0.048,-0.072 -0.24,-0.024 -0.024,0 -0.144,0.024 -0.12,0.024 -0.168,0.024 -0.864,0.216 -1.512,0.72 -0.648,0.48 -1.152,1.08 -0.48,0.6 -0.936,1.152 -0.216,0.432 -0.432,0.696 -0.024,0.024 -0.048,-0.024 -0.024,-0.048 -0.048,0 -0.072,0.072 -0.12,0.24 -0.024,0.144 -0.096,0.24 -0.024,0.024 -0.048,-0.024 -0.024,-0.048 -0.072,0 -0.024,0.024 -0.072,0.192 -0.024,0.144 -0.072,0.192 -0.288,0.384 -0.624,0.744 -0.336,0.36 -0.672,0.84 -0.48,0.744 -0.912,1.464 -0.432,0.72 -0.912,1.584 -0.168,0.288 -0.264,0.528 -0.072,0.216 -0.168,0.408 -0.048,0.072 -0.048,0.192 0,0.168 0.192,0.168 0.144,0 0.288,-0.072 l 0.24,-0.096 q 0.576,-0.528 1.2,-0.888 0.024,0 0.024,0 0.024,-0.024 0.048,-0.024 0.072,0 0.096,0.096 0.024,0.072 -0.048,0.12 -0.696,0.384 -1.296,0.984 -0.024,0.048 -0.048,0.096 -0.024,0.048 -0.072,0.096 -0.048,0.048 -0.144,0.168 -0.072,0.12 -0.072,0.144 -0.024,0.072 -0.072,0.048 -0.024,-0.024 -0.144,0.072 -0.024,0.024 -0.048,0.096 0,0.072 -0.024,0.12 -0.024,0.072 -0.096,0.12 -0.048,0.024 -0.048,0.048 -0.024,0.096 -0.096,0.12 -0.048,0 -0.096,0.048 -0.024,0.024 0,0.072 0.024,0.048 -0.024,0.096 -0.024,0.072 -0.048,0.072 -0.024,-0.024 -0.072,0.024 -0.096,0.096 -0.144,0.096 -0.144,0.048 -0.12,0.072 0.048,0.024 0.072,0.048 0.048,0 -0.072,0.072 -0.048,0.024 -0.096,0.144 -0.048,0.096 -0.096,0.144 -0.072,0.048 -0.144,0.072 -0.048,0.024 -0.12,0.096 -0.216,0.216 -0.36,0.216 z m 5.44801,-0.024 q -0.6,0 -1.056,-0.336 -0.456,-0.336 -0.456,-1.152 0,-0.312 0.072,-0.624 0.072,-0.336 0.168,-0.648 0.048,-0.312 0.144,-0.552 0.024,-0.096 0.024,-0.096 0.024,-0.024 0.12,-0.072 l 0.192,-0.288 v -0.096 q -0.024,0 -0.024,0 0,-0.024 0,-0.024 0,-0.072 0.12,-0.168 0.12,-0.096 0.12,-0.096 0.024,-0.12 0.072,-0.12 0.048,0 0.12,-0.072 h 0.264 v -0.048 q 0,-0.12 -0.12,-0.096 -0.096,0 -0.096,-0.024 0,-0.024 0.072,-0.096 0.096,-0.096 0.12,-0.12 0.072,-0.096 0.12,-0.168 0.048,-0.096 0.144,-0.144 0.432,-0.528 0.528,-0.672 0.12,-0.144 0.24,-0.216 0.048,0 0.072,0.048 0.048,0.024 0,0.072 0.048,0.072 0.072,0.024 0.048,-0.048 0.048,-0.048 l 0.096,-0.048 q -0.048,-0.048 -0.048,-0.12 0,-0.12 0.048,-0.192 0.048,-0.096 0.168,-0.192 0.144,-0.096 0.144,-0.12 0.144,-0.048 0.216,-0.096 0.096,-0.048 0.192,-0.048 0.168,0 0.336,0.12 0.456,0.24 0.768,0.48 0.312,0.24 0.312,0.672 0,0.456 -0.384,0.792 -0.36,0.312 -0.888,0.528 -0.528,0.216 -1.056,0.36 -0.504,0.12 -0.792,0.192 -0.168,0.024 -0.168,0.144 0.024,0.096 -0.024,0.216 l -0.168,0.264 -0.144,0.336 -0.12,0.216 q -0.168,0.144 -0.12,0.216 0.048,0.072 0.168,-0.024 0.024,0.024 0.024,0.072 0,0.096 -0.048,0.24 -0.048,0.12 -0.072,0.192 -0.024,0.096 0,0.096 0.048,-0.024 0.048,0.096 l 0.024,0.336 q 0.144,0.456 0.648,0.528 0.048,0 0.096,0.024 0.072,0 0.12,0 0.432,0 0.456,-0.072 0.048,-0.072 0.12,-0.096 0.216,-0.048 0.36,-0.096 0.168,-0.048 0.336,-0.144 0.288,-0.12 0.552,-0.312 0.264,-0.192 0.552,-0.384 l 0.24,-0.168 q 0.024,-0.048 0,-0.072 -0.024,-0.024 0,-0.048 0.048,-0.024 0.072,0 0.048,0 0.072,-0.024 0.048,-0.024 0.096,-0.072 0.048,-0.072 0.096,-0.12 0.048,-0.048 0.048,-0.096 0.024,-0.048 0.072,-0.096 0.192,-0.192 0.384,-0.408 0.216,-0.216 0.36,-0.384 0.168,-0.24 0.264,-0.24 0.048,0 0.048,0.048 0,0.12 -0.168,0.36 -0.408,0.6 -0.936,1.176 -0.528,0.552 -1.152,1.008 -0.456,0.312 -1.08,0.552 -0.624,0.24 -1.248,0.24 z m 0.36,-3.864 q 0.36,-0.024 0.936,-0.192 0.576,-0.192 0.96,-0.504 0.408,-0.336 0.408,-0.744 0,-0.384 -0.408,-0.744 -0.336,0.24 -0.744,0.696 -0.384,0.432 -0.696,0.864 -0.312,0.408 -0.456,0.624 z m 3.624,3.888 q -0.144,0 -0.144,-0.168 0,-0.12 0.072,-0.288 0.192,-0.408 0.456,-1.152 0.264,-0.744 0.648,-1.272 l 0.936,-2.088 q 0,0 -0.048,-0.024 -0.048,-0.048 -0.048,-0.096 -0.144,-0.096 -0.312,-0.264 -0.144,-0.192 -0.024,-0.384 0.048,-0.048 0.072,-0.048 0.024,0 0.024,0 v -0.048 q 0,-0.096 0.072,-0.12 0.096,-0.024 0.12,-0.072 0.048,-0.336 0.552,-0.504 0.528,-0.168 0.936,-0.168 0.408,0 0.408,0.12 0,0.072 -0.144,0.168 -0.048,0.048 -0.24,0.216 -0.168,0.168 -0.312,0.408 l -0.168,0.288 -0.168,0.216 q -0.384,0.696 -0.624,1.176 -0.24,0.48 -0.576,1.224 -0.072,0.144 -0.072,0.24 0,0.12 0.096,0.12 0.048,0 0.096,-0.024 0.072,-0.048 0.144,-0.072 0.192,-0.12 0.312,-0.216 0.144,-0.12 0.312,-0.24 0.072,-0.072 0.12,0 0.048,0.048 0,0.144 -0.096,0.192 -0.144,0.24 -0.024,0.024 -0.072,0.048 -0.048,0.024 -0.216,0.216 l -0.096,0.192 q -0.048,0.048 -0.12,0.192 -0.048,0.12 -0.048,0.144 0,0.048 -0.048,0.048 -0.048,-0.024 -0.144,0.072 -0.024,0.024 -0.024,0.096 0.024,0.072 -0.024,0.12 -0.024,0.072 -0.072,0.12 -0.048,0.024 -0.048,0.048 -0.024,0.096 -0.096,0.12 -0.048,0 -0.096,0.048 -0.024,0 -0.024,0.048 0,0.192 -0.048,0.168 -0.048,-0.024 -0.096,0.048 -0.048,0.096 -0.12,0.096 -0.144,0.048 -0.12,0.072 0.024,0.024 0.072,0.048 0.048,0 -0.072,0.072 -0.072,0.024 -0.12,0.144 -0.048,0.096 -0.096,0.144 -0.048,0.048 -0.12,0.072 -0.072,0.024 -0.12,0.096 -0.216,0.216 -0.384,0.216 z m 7.152,-0.192 q -0.096,0 -0.168,0 -0.072,-0.024 -0.144,-0.048 -0.24,-0.048 -0.432,-0.144 -0.168,-0.096 -0.288,-0.36 -0.024,-0.12 -0.12,-0.312 -0.072,-0.192 -0.096,-0.36 -0.024,-0.12 -0.024,-0.288 -0.024,-0.12 -0.024,-0.312 -0.048,-0.24 -0.048,-0.432 0.024,-0.192 0.024,-0.456 0,-0.264 0.024,-0.384 0.048,-0.216 0.048,-0.216 0,-0.024 0,-0.24 0.024,-0.288 0.024,-0.6 0,-0.312 0.024,-0.504 0.072,-0.72 -0.288,-0.72 -0.144,0 -0.384,0.12 -0.024,0.072 -0.096,0.096 -0.048,0 -0.144,0.048 l -0.12,0.072 q 0,0.024 -0.048,0.024 -0.048,-0.024 -0.048,0.024 0.024,0.096 -0.024,0.12 -0.024,0.024 -0.072,-0.024 l -0.264,0.192 q 0,0.024 -0.072,0.096 l -0.024,0.024 q -0.096,0.096 -0.168,0.096 l -0.072,0.072 q 0,0.024 -0.048,0.096 -0.024,0.048 -0.12,0.024 l -0.12,0.12 q -0.096,0.144 -0.168,0.168 -0.048,0.024 -0.12,0.048 l -0.192,0.24 -0.096,0.024 q 0,0.096 -0.216,0.288 -0.192,0.192 -0.264,0.264 -0.072,0.072 -0.144,0.072 -0.048,0 -0.048,-0.048 0,-0.024 0.12,-0.192 0.096,-0.096 0.288,-0.36 0.216,-0.264 0.24,-0.24 0.12,-0.12 0.168,-0.24 0.048,-0.144 0.168,-0.24 0,0.024 0,0.048 0.024,0 0.024,0 0.048,0 0.12,-0.12 0.072,-0.144 0.096,-0.12 l 0.408,-0.36 q 0,-0.024 0.12,-0.096 0.096,-0.048 0.12,-0.048 0.024,0 0.12,-0.144 l 0.168,-0.12 q 0.024,-0.048 0.048,0.024 0.048,0.048 0.072,0.024 l 0.072,-0.168 q 0.048,-0.072 0.144,-0.12 0.12,-0.072 0.24,-0.144 0.288,-0.288 0.432,-0.288 h 0.096 q 0.312,-0.12 0.576,-0.12 0.384,0 0.6,0.288 0.048,0.072 0.096,0.264 0.048,0.024 0.024,0.072 0,0.024 0.024,0.072 0.024,0.048 0.096,0.12 0.072,0.048 0.072,0.12 v 0.048 q 0,0.096 -0.12,0.168 0.12,0.096 0.096,0.12 0,0 -0.024,0.072 l -0.048,0.336 q -0.024,0.168 -0.072,0.264 -0.048,0.072 -0.096,0.264 0.096,0.144 0,0.192 h -0.048 l -0.024,0.096 q 0,0.048 0.048,0.096 l -0.072,0.144 q 0.024,-0.024 0.024,0 0.024,0 0.024,0 -0.024,0.048 -0.072,0.192 -0.048,0.12 -0.072,0.192 -0.024,0.12 -0.096,0.12 -0.072,0 -0.048,0.12 0.024,0.024 0.024,0.168 0.024,0.12 -0.024,0.12 l -0.048,0.288 v 0.072 q 0,0.12 -0.048,0.24 -0.024,0.12 -0.048,0.24 -0.024,0.12 -0.048,0.264 0,0.12 0,0.24 0,0.096 0,0.216 0.024,0.096 0.048,0.192 0,0.024 0.072,0.144 0.072,0.12 0.072,0.144 l 0.072,0.072 q 0.048,0.024 0.144,0 0.12,-0.024 0.168,0.024 0.216,0.024 0.552,-0.216 0.36,-0.264 0.648,-0.576 0.072,-0.072 0.144,-0.072 0.048,0 0.072,0.072 0.024,0.072 -0.048,0.192 -0.384,0.552 -0.72,0.768 -0.336,0.192 -0.624,0.192 z m 5.49599,-7.368 q -0.072,0 -0.144,-0.048 -0.048,-0.048 -0.144,-0.12 -0.048,-0.024 -0.12,-0.048 -0.048,-0.048 -0.048,-0.144 -0.024,-0.024 -0.096,-0.024 -0.12,0 -0.12,-0.168 0,-0.192 0.192,-0.264 l 0.12,-0.096 v 0.024 l 0.096,-0.12 h 0.048 q 0.144,0 0.192,-0.144 0.072,-0.144 0.288,-0.192 0.144,-0.048 0.24,0.024 0.096,0.072 0.24,0.072 0.144,0 0.312,-0.096 l 0.36,-0.072 q 0.072,0 0.072,0.048 0,0.048 -0.144,0.12 -0.12,0.072 -0.168,0.12 l -0.024,0.024 -0.024,0.048 -0.096,0.12 q -0.144,0.168 -0.336,0.408 -0.168,0.216 -0.36,0.36 -0.216,0.168 -0.336,0.168 z m -3.648,7.56 q -0.144,0 -0.144,-0.168 0,-0.12 0.072,-0.288 0.192,-0.408 0.432,-1.152 0.264,-0.744 0.648,-1.272 0.264,-0.528 0.48,-1.032 0.24,-0.528 0.456,-1.056 0,0 -0.048,-0.024 -0.024,-0.048 -0.024,-0.096 -0.144,-0.096 -0.312,-0.264 -0.144,-0.192 -0.024,-0.384 0.048,-0.048 0.072,-0.048 0.024,0 0.024,0 0,-0.024 -0.024,-0.024 0,-0.024 0,-0.024 0,-0.096 0.096,-0.12 0.096,-0.024 0.096,-0.072 0.048,-0.336 0.576,-0.504 0.528,-0.168 0.936,-0.168 0.408,0 0.408,0.12 0,0.048 -0.144,0.168 -0.072,0.048 -0.24,0.216 -0.168,0.168 -0.312,0.408 l -0.192,0.288 q -0.024,0.048 -0.072,0.12 -0.024,0.048 -0.072,0.096 -0.384,0.696 -0.624,1.176 -0.24,0.48 -0.576,1.224 -0.048,0.144 -0.048,0.192 0,0.168 0.192,0.168 0.144,0 0.288,-0.072 l 0.24,-0.096 q 0.576,-0.528 1.2,-0.888 0.024,0 0.024,0 0.024,-0.024 0.048,-0.024 0.072,0 0.096,0.096 0.024,0.072 -0.048,0.12 -0.696,0.384 -1.296,0.984 -0.024,0.048 -0.048,0.096 -0.024,0.048 -0.072,0.096 -0.048,0.048 -0.144,0.168 -0.072,0.12 -0.072,0.144 -0.024,0.072 -0.072,0.048 -0.024,-0.024 -0.144,0.072 -0.024,0.024 -0.048,0.096 0,0.072 -0.024,0.12 -0.024,0.072 -0.096,0.12 -0.048,0.024 -0.048,0.048 -0.024,0.096 -0.096,0.12 -0.048,0 -0.096,0.048 -0.024,0.024 0,0.072 0.024,0.048 -0.024,0.096 -0.024,0.072 -0.048,0.072 -0.024,-0.024 -0.072,0.024 -0.096,0.096 -0.144,0.096 -0.144,0.048 -0.12,0.072 0.048,0.024 0.072,0.048 0.048,0 -0.072,0.072 -0.048,0.024 -0.096,0.144 -0.048,0.096 -0.096,0.144 -0.072,0.048 -0.144,0.072 -0.048,0.024 -0.12,0.096 -0.216,0.216 -0.36,0.216 z m 4.82399,0 q -0.144,0 -0.144,-0.168 0,-0.12 0.072,-0.288 0.192,-0.408 0.432,-1.152 0.264,-0.744 0.648,-1.272 l 1.2,-2.472 q -0.144,0 -0.288,0.072 -0.12,0.072 -0.12,0.12 0,0.096 -0.264,0.192 -0.264,0.096 -0.288,0.12 -0.36,0.096 -0.672,0.216 -0.24,0.264 -0.48,0.528 -0.216,0.264 -0.408,0.528 -0.024,0.024 -0.048,0.024 -0.216,0.24 -0.36,0.36 -0.144,0.12 -0.312,0.216 -0.096,0.072 -0.192,0.048 -0.12,-0.048 -0.024,-0.096 0.12,-0.048 0.384,-0.336 0.264,-0.288 0.408,-0.432 0.12,-0.072 0.072,0 -0.024,0.072 0.072,-0.024 l 0.6,-0.768 0.024,-0.024 q -0.12,-0.072 -0.12,-0.384 0,-0.24 0.096,-0.384 0,-0.024 0.048,-0.024 l 0.504,-0.144 q 0.072,0 0.096,-0.024 0.048,-0.048 0.096,-0.12 0.072,-0.096 0.168,-0.24 l 0.288,-0.384 0.192,-0.264 q 0,-0.072 0.096,-0.168 0.12,-0.12 0.192,-0.168 0.096,-0.144 0.12,-0.216 0.048,-0.096 0.144,-0.24 0,-0.024 0.072,-0.024 0.072,-0.024 0.072,-0.048 0.024,-0.24 0.072,-0.216 0.072,0 0.072,-0.072 0,-0.072 0.096,-0.12 l 0.12,-0.144 q 0,-0.024 0.072,-0.096 v -0.024 q 0,-0.048 0,-0.12 0,-0.072 0.048,-0.144 0.048,-0.048 0.072,-0.048 0.024,0 0.024,0 0,-0.024 -0.024,-0.024 0,-0.024 0,-0.024 0,-0.096 0.096,-0.12 0.096,-0.024 0.096,-0.072 0.048,-0.336 0.576,-0.504 0.528,-0.168 0.936,-0.168 0.408,0 0.408,0.12 0,0.048 -0.144,0.168 -0.072,0.024 -0.24,0.216 -0.168,0.168 -0.312,0.408 l -0.192,0.288 q -0.024,0.048 -0.072,0.12 -0.024,0.048 -0.072,0.096 -0.168,0.288 -0.456,0.816 -0.264,0.504 -0.576,1.128 l 0.624,-0.072 q 0.072,0 0.048,0.024 0,0.024 0.072,0 0.12,0 0.168,-0.024 0.048,-0.048 0.168,-0.072 0.192,-0.024 0.432,-0.024 0.264,-0.024 0.408,-0.024 0.096,0 0.24,0 0.144,0 0.216,0.024 0.048,0 0.024,0.048 0,0.024 0.024,0.024 0.048,0 0.072,-0.024 0.048,-0.024 0.096,-0.024 0.024,-0.024 0.072,0 0.072,0 0.096,0 l 0.24,0.072 q 0.144,0.024 0.144,0.168 0.024,0.144 -0.12,0.096 -0.096,-0.048 -0.168,-0.048 h -0.6 q -0.168,0 -0.312,0 -0.144,0 -0.288,0.024 -0.048,0.024 -0.048,-0.048 0.024,-0.072 -0.024,-0.072 -0.024,0 -0.072,0.072 -0.048,0.048 -0.072,0.048 l -0.12,0.072 q -0.384,0.096 -0.816,0.216 -0.432,0.096 -0.84,0.216 -0.36,0.744 -0.696,1.416 -0.312,0.648 -0.48,1.008 -0.048,0.144 -0.048,0.168 0,0.192 0.216,0.192 0.144,0 0.288,-0.072 l 0.24,-0.096 q 0.576,-0.528 1.2,-0.888 0.024,0 0.024,0 0.024,-0.024 0.048,-0.024 0.072,0 0.096,0.096 0.024,0.072 -0.048,0.12 -0.696,0.384 -1.296,0.984 -0.024,0.048 -0.048,0.096 -0.024,0.048 -0.072,0.096 -0.048,0.048 -0.144,0.168 -0.072,0.12 -0.072,0.144 -0.024,0.072 -0.072,0.048 -0.024,-0.024 -0.144,0.072 -0.024,0.024 -0.048,0.096 0,0.072 -0.024,0.12 -0.048,0.072 -0.096,0.12 -0.048,0.024 -0.048,0.048 -0.024,0.096 -0.096,0.12 -0.048,0 -0.096,0.048 -0.024,0 -0.024,0.024 0,0 0,0 0,0.216 -0.048,0.192 -0.048,-0.024 -0.072,0.048 -0.096,0.096 -0.144,0.096 -0.144,0.048 -0.12,0.072 0.048,0.024 0.072,0.048 0.048,0 -0.072,0.072 -0.048,0.024 -0.096,0.144 -0.048,0.096 -0.096,0.144 -0.072,0.048 -0.144,0.072 -0.072,0.024 -0.12,0.096 -0.216,0.216 -0.36,0.216 z m 1.368,-5.64 q 0.096,-0.024 0.168,-0.048 0.096,-0.024 0.192,-0.072 l 0.72,-0.12 q 0.288,-0.576 0.504,-1.032 0.216,-0.48 0.312,-0.696 0,0 -0.048,-0.024 -0.024,-0.048 -0.024,-0.096 -0.048,-0.024 -0.12,-0.072 -0.048,-0.048 -0.096,-0.072 l -0.216,0.216 -0.264,0.36 q 0,0.024 -0.072,0.048 -0.048,0 -0.048,0.024 0,0.072 -0.072,0.144 -0.048,0.072 -0.096,0.048 l -0.096,0.24 q 0,0.072 -0.072,0.12 l -0.168,0.216 q 0,0.024 -0.024,0.048 0,0 0,0.048 -0.024,0.048 -0.072,0.12 -0.048,0.072 -0.12,0.144 -0.024,0 -0.024,0.024 0,0 -0.024,0 l -0.072,0.144 q -0.096,0.048 -0.12,0.048 l -0.024,0.048 q 0,0.144 -0.024,0.192 z m 4.55998,5.616 q -0.6,0 -1.056,-0.336 -0.456,-0.336 -0.456,-1.152 0,-0.312 0.072,-0.624 0.072,-0.336 0.168,-0.648 0.048,-0.312 0.144,-0.552 0.024,-0.096 0.024,-0.096 0.024,-0.024 0.12,-0.072 l 0.192,-0.288 v -0.096 q -0.024,0 -0.024,0 0,-0.024 0,-0.024 0,-0.072 0.12,-0.168 0.12,-0.096 0.12,-0.096 0.024,-0.12 0.072,-0.12 0.048,0 0.12,-0.072 h 0.264 v -0.048 q 0,-0.12 -0.12,-0.096 -0.096,0 -0.096,-0.024 0,-0.024 0.072,-0.096 0.096,-0.096 0.12,-0.12 0.072,-0.096 0.12,-0.168 0.048,-0.096 0.144,-0.144 0.432,-0.528 0.528,-0.672 0.12,-0.144 0.24,-0.216 0.048,0 0.072,0.048 0.048,0.024 0,0.072 0.048,0.072 0.072,0.024 0.048,-0.048 0.048,-0.048 l 0.096,-0.048 q -0.048,-0.048 -0.048,-0.12 0,-0.12 0.048,-0.192 0.048,-0.096 0.168,-0.192 0.144,-0.096 0.144,-0.12 0.144,-0.048 0.216,-0.096 0.096,-0.048 0.192,-0.048 0.168,0 0.336,0.12 0.456,0.24 0.768,0.48 0.312,0.24 0.312,0.672 0,0.456 -0.384,0.792 -0.36,0.312 -0.888,0.528 -0.528,0.216 -1.056,0.36 -0.504,0.12 -0.792,0.192 -0.168,0.024 -0.168,0.144 0.024,0.096 -0.024,0.216 l -0.168,0.264 -0.144,0.336 -0.12,0.216 q -0.168,0.144 -0.12,0.216 0.048,0.072 0.168,-0.024 0.024,0.024 0.024,0.072 0,0.096 -0.048,0.24 -0.048,0.12 -0.072,0.192 -0.024,0.096 0,0.096 0.048,-0.024 0.048,0.096 l 0.024,0.336 q 0.144,0.456 0.648,0.528 0.048,0 0.096,0.024 0.072,0 0.12,0 0.432,0 0.456,-0.072 0.048,-0.072 0.12,-0.096 0.216,-0.048 0.36,-0.096 0.168,-0.048 0.336,-0.144 0.288,-0.12 0.552,-0.312 0.264,-0.192 0.552,-0.384 l 0.24,-0.168 q 0.024,-0.048 0,-0.072 -0.024,-0.024 0,-0.048 0.048,-0.024 0.072,0 0.048,0 0.072,-0.024 0.048,-0.024 0.096,-0.072 0.048,-0.072 0.096,-0.12 0.048,-0.048 0.048,-0.096 0.024,-0.048 0.072,-0.096 0.192,-0.192 0.384,-0.408 0.216,-0.216 0.36,-0.384 0.168,-0.24 0.264,-0.24 0.048,0 0.048,0.048 0,0.12 -0.168,0.36 -0.408,0.6 -0.936,1.176 -0.528,0.552 -1.152,1.008 -0.456,0.312 -1.08,0.552 -0.624,0.24 -1.248,0.24 z m 0.36,-3.864 q 0.36,-0.024 0.936,-0.192 0.576,-0.192 0.96,-0.504 0.408,-0.336 0.408,-0.744 0,-0.384 -0.408,-0.744 -0.336,0.24 -0.744,0.696 -0.384,0.432 -0.696,0.864 -0.312,0.408 -0.456,0.624 z"
       id="text1"
       aria-label="Selenite" />
  </g>
</svg>
