<?xml version="1.0" encoding="UTF-8" standalone="no"?>
<!-- Created with Inkscape (http://www.inkscape.org/) -->

<svg
   width="88.487968"
   height="25.040001"
   viewBox="0 0 88.487968 25.040001"
   version="1.1"
   id="svg1"
   sodipodi:docname="selenite-logo-black.svg"
   inkscape:export-filename="selenite-logo-black.png"
   inkscape:export-xdpi="96"
   inkscape:export-ydpi="96"
   xmlns:inkscape="http://www.inkscape.org/namespaces/inkscape"
   xmlns:sodipodi="http://sodipodi.sourceforge.net/DTD/sodipodi-0.dtd"
   xmlns="http://www.w3.org/2000/svg"
   xmlns:svg="http://www.w3.org/2000/svg">
  <sodipodi:namedview
     id="namedview1"
     pagecolor="#505050"
     bordercolor="#eeeeee"
     borderopacity="1"
     inkscape:showpageshadow="0"
     inkscape:pageopacity="0"
     inkscape:pagecheckerboard="0"
     inkscape:deskcolor="#d1d1d1" />
  <defs
     id="defs1" />
  <g
     id="layer1"
     transform="translate(-124.11316,-74.419712)">
    <path
       style="font-size:40px;line-height:1.25;font-family:'Island Moments';-inkscape-font-specification:'Island Moments'"
       d="m 133.84116,99.459712 -0.36,-0.12 q -0.04,0.12 -0.2,0.08 -0.12,0 -0.2,-0.08 -0.2,-0.32 -0.44,-0.28 -0.24,0.08 -0.64,-0.08 h -0.04 q -0.12,0 -0.28,0.04 -0.12,0.08 -0.24,0.04 l -0.28,-0.24 q 0,0.04 -0.08,0.04 -0.12,0 -0.24,-0.04 -0.12,-0.04 -0.08,-0.08 l -0.68,-0.36 -0.08,0.04 -0.44,-0.48 q -0.04,0.04 -0.08,0.04 -0.08,0 -0.16,-0.12 -0.08,-0.08 -0.12,-0.08 -0.24,-0.2 -0.56,-0.4 -0.28,-0.16 -0.56,-0.36 -0.04,-0.04 -0.04,-0.16 0,-0.08 -0.08,-0.12 -0.12,-0.12 -0.28,-0.24 -0.16,-0.12 -0.2,-0.28 l -0.16,0.04 q -0.24,-0.44 -0.56,-0.8 -0.32,-0.36 -0.28,-0.96 h -0.08 l -0.52,-0.2 v -0.12 q -0.04,0 -0.12,0.04 -0.08,0 -0.2,-0.04 -0.28,-0.12 -0.52,-0.28 -0.24,-0.2 -0.36,-0.48 -0.04,-0.12 -0.12,-0.12 -0.04,0 -0.08,-0.04 -0.08,-0.2 -0.24,-0.36 -0.16,-0.16 -0.12,-0.4 l 0.12,-1 q 0.32,-0.36 0.48,-0.36 0.16,0 0.16,0.36 l -0.24,0.4 0.04,0.48 q 0.08,0.08 0.24,0.08 0.16,0 0.24,-0.04 l -0.04,0.24 0.16,0.28 0.04,-0.08 0.24,0.08 0.2,0.28 q 0.08,-0.16 0.16,0 0.08,0.12 0.08,0.12 l 0.2,-0.16 q -0.04,-0.2 -0.08,-0.4 -0.04,-0.24 -0.04,-0.44 0,-0.28 0.04,-0.4 0.12,-0.44 0.08,-0.68 0,0 0.16,-0.28 0.16,-0.32 0.32,-0.4 l 0.32,-0.2 0.08,0.12 q -0.04,0.04 -0.16,0.24 -0.12,0.2 -0.2,0.28 -0.32,0.68 -0.24,1.36 0,0.04 0,0.12 0.04,0.04 0,0.16 v 0.56 q 0.08,0.04 0.08,0.32 0,0.24 0.08,0.2 0.2,-0.04 0.32,0.12 0.16,0.12 0.24,-0.12 l 0.28,0.32 h 0.4 q -0.04,0.08 0.2,0.16 0.28,0.04 0.56,0.04 0.28,0 0.28,0 l 0.24,0.2 q 0,-0.04 0.12,0.08 h 0.04 q 0.12,0 0.24,-0.08 0.16,-0.08 0.24,-0.08 0.2,0.04 0.4,0.16 0.24,0.12 0.36,0 l 0.32,0.12 0.36,-0.2 q 0.08,0.08 0.32,0.16 0.08,0.04 0.24,0.04 0.36,0 0.52,-0.16 l 0.16,0.2 q 0.56,-0.04 1.12,0 0.6,0 1.12,0 0.44,0 0.84,0 0.44,-0.04 0.84,-0.08 0.12,0 0.2,0 0.08,-0.04 0.12,-0.04 0.28,0 0.64,-0.16 0.36,-0.16 0.6,-0.16 0.08,0 0.36,-0.12 0.32,-0.16 0.2,0.2 l -0.4,0.2 -0.12,-0.04 q -0.04,0.04 -0.36,0.2 -0.28,0.12 -0.32,0.04 l -0.84,0.12 q -0.16,0.04 -0.48,0.08 -0.32,0.04 -0.32,0 l -0.36,0.08 q 0,-0.04 -0.08,-0.04 -0.16,0 -0.48,0.12 -0.28,0.12 -0.32,0.08 -0.04,-0.08 -0.4,0 -0.32,0.04 -0.64,0.04 -0.48,0 -0.52,-0.16 l -0.32,0.12 q 0.08,-0.08 -0.08,-0.08 -0.12,-0.04 -0.2,0 l -0.04,0.2 q -0.08,0.04 -0.16,0 -0.08,-0.04 -0.16,-0.08 -0.24,-0.12 -0.76,-0.12 -0.52,0 -1,-0.04 -0.48,-0.04 -0.6,-0.2 l -0.32,0.16 q -0.16,0 -0.48,-0.04 -0.28,-0.08 -0.44,-0.12 -0.28,-0.08 -0.64,-0.16 -0.32,-0.08 -0.64,-0.04 l 0.2,0.32 v 0.08 q 0.28,0.16 0.44,0.52 0.2,0.32 0.6,0.24 l 0.12,0.52 0.32,0.2 q 0,0 0,0 0.04,-0.04 0.08,-0.04 0.12,0 0.4,0.16 0.28,0.16 0.44,0.24 l 0.12,-0.08 0.2,0.36 q 0.04,-0.04 0.08,-0.04 0.12,0 0.28,0.08 0.16,0.08 0.2,0.04 l 0.28,0.08 0.28,-0.08 q 0.16,0.24 0.2,0.36 0.04,0.12 0.12,0.16 0.2,0.08 0,0.12 -0.16,0.04 -0.16,0.12 l 0.04,0.08 h 0.36 q 0,-0.12 0.28,-0.2 0.32,-0.04 0.64,-0.04 0.48,0 0.56,0.08 0.16,0.08 0.08,0 l 0.36,-0.04 0.24,0.2 q 0.08,-0.12 0.16,-0.12 0.12,0 0.2,0.04 0.12,0.08 0.12,0.08 0.08,0.04 0.16,-0.16 0.12,-0.16 0.28,-0.12 l 0.16,0.04 q 0.28,0 0.56,-0.08 0.32,-0.08 0.36,0.16 l 0.28,-0.2 0.2,0.04 -0.08,0.32 q 0,0.16 0.04,0.16 0.08,0 0.2,-0.28 0.16,-0.24 0.16,-0.04 l 0.28,-0.32 q 0.12,0.08 0.32,0.08 0.32,0 0.6,-0.24 0.28,-0.2 0.68,-0.28 l 0.04,0.08 q 0.08,-0.04 0.16,-0.08 0.12,0 0.12,0.08 l 0.44,-0.04 q 0.16,-0.12 0.52,-0.28 0.4,-0.16 0.56,-0.24 l 0.04,-0.16 q 0,0 0.2,0 0.24,-0.04 0.28,-0.08 v -0.04 q 0,-0.08 0,-0.24 0,-0.2 0.16,-0.16 l 0.2,0.12 q 0.36,-0.12 0.48,-0.32 0.16,-0.24 0.48,-0.44 0.12,-0.08 0.2,-0.2 0.12,-0.12 0.28,-0.16 0.04,0 0.12,0.12 0.12,0.12 0.24,-0.04 l 0.04,-0.4 0.36,-0.12 0.2,-0.28 q 0,0 0,0.04 0.04,0 0.08,0 0.16,0 0.36,-0.32 0.2,-0.32 0.08,-0.44 l 0.4,-0.44 q -0.04,-0.24 0.16,-0.6 0.24,-0.36 0.24,-0.88 0,-0.32 -0.2,-0.76 -0.2,-0.44 -0.8,-0.96 l -0.2,-0.12 q -0.48,-0.32 -0.88,-0.48 -0.36,-0.2 -0.96,-0.4 0,0 -0.12,-0.08 l -1.12,-0.32 q -0.16,-0.12 -0.72,-0.2 -0.56,-0.08 -0.76,-0.12 -0.08,-0.04 -0.2,-0.12 -0.08,-0.08 -0.16,0.04 l -0.36,-0.2 q -0.08,0.04 -0.2,0.04 -0.08,0 -0.16,-0.04 -0.04,-0.04 -0.24,-0.04 -0.28,-0.04 -0.92,-0.24 -0.6,-0.2 -0.68,-0.12 l -1.04,-0.52 -0.12,0.04 -0.36,-0.2 q 0.12,0.16 -0.16,0.08 -0.28,-0.12 -0.64,-0.28 -0.36,-0.2 -0.56,-0.24 -0.68,-0.28 -1.24,-0.8 -0.52,-0.52 -0.52,-1.28 0,-0.68 0.08,-0.96 0.08,-0.28 0.2,-0.48 0.16,-0.2 0.28,-0.6 0.08,-0.12 0.2,-0.24 0.16,-0.16 0.2,-0.32 l 0.32,-0.2 q 0.04,-0.2 0.2,-0.4 0.2,-0.2 0.36,-0.28 0.52,-0.24 1.16,-0.8 0.68,-0.6 1.32,-0.88 0.16,-0.08 0.28,-0.12 0.12,-0.08 0.28,-0.12 l 0.04,0.08 q 0.36,-0.12 1.2,-0.36 0.84,-0.28 1.84,-0.56 1.04,-0.28 1.92,-0.48 0.92,-0.2 1.44,-0.2 0.36,0 0.4,0.12 l 0.48,-0.28 q 0.04,0.04 0.16,0.08 0.12,0 0.16,-0.04 l 0.4,0.12 q 0.16,-0.08 0.24,-0.08 0.24,0 0.52,0.16 0.32,0.12 0.48,0.08 0.2,-0.08 0.28,-0.04 0.12,0 0.24,0 h 0.16 q 0.12,0 0.24,0.04 0.16,0 0.32,0.16 l 0.2,0.04 q 0.12,0.12 0.12,0.28 0.08,0.16 0.48,0.2 0.4,0.04 0.52,0.16 0.32,0.24 0.36,0.8 0.08,0.52 0.08,0.96 -0.04,0.44 -0.36,1.08 -0.28,0.6 -0.72,0.96 -0.2,0.16 -0.6,0.36 -0.4,0.16 -0.6,0.28 -0.44,0.28 -0.96,0.28 -0.76,0 -0.76,-0.32 0,-0.12 0.28,-0.24 0.2,-0.08 0.36,-0.16 0.2,-0.12 0.36,-0.28 0.16,-0.08 0.2,-0.08 0.08,-0.04 0.12,-0.08 0.08,-0.04 0.12,-0.08 0.04,-0.08 0.16,-0.16 0.24,-0.2 0.6,-0.64 0.4,-0.48 0.56,-0.72 0.04,-0.2 0.16,-0.52 0.16,-0.36 0.16,-0.64 0,-0.24 -0.12,-0.36 -0.04,0 -0.04,-0.04 l -0.04,-0.08 q -0.32,-0.68 -1.28,-0.76 -0.92,-0.12 -1.56,-0.12 0,0 -0.08,-0.04 -0.08,-0.04 -0.08,0.04 l -0.88,0.08 -0.08,-0.08 -0.84,0.16 -0.08,-0.04 -0.88,0.24 q 0.04,-0.08 -0.04,-0.04 -0.08,0 -0.08,0 l -0.88,0.24 -0.04,-0.04 -0.4,0.24 q 0,-0.04 -0.04,-0.08 -0.04,-0.04 -0.04,-0.04 -0.04,0.04 -0.08,0.12 -0.04,0.04 -0.12,0.08 l -0.08,-0.04 -0.56,0.2 q 0,0.04 -0.16,0.04 -1.08,0.48 -2.36,1.12 -1.24,0.6 -1.92,1.72 l -0.08,-0.08 -0.36,0.32 q -0.04,0.04 -0.12,0.12 -0.04,0.08 -0.12,0.28 -0.12,0.32 -0.36,0.76 -0.2,0.44 -0.2,0.84 0,0.4 0.16,0.76 0.16,0.32 0.24,0.16 l 0.36,0.24 0.12,0.44 0.08,-0.04 0.52,0.4 h 0.08 l 0.64,0.52 0.48,0.28 h 0.32 l 0.48,0.16 q 0.08,0.04 0.12,0.12 0.08,0.04 0.2,-0.08 l 0.4,0.28 q 0.04,-0.04 0.12,-0.04 0.08,0 0.16,0.08 0.08,0.04 0.12,0.08 l 0.08,-0.04 1.4,0.56 q 0.08,-0.04 0.2,-0.04 0.2,0 0.32,0.08 0.16,0.04 0.32,0.08 0.08,0.04 0.2,0.12 0.16,0.08 0.16,0.12 0.08,0.04 0.16,0.04 0.12,0 0.2,0 l 0.36,0.12 0.36,0.2 0.36,0.04 q 0,0 0.32,0.16 0.36,0.12 0.72,0.24 0.4,0.12 0.44,0.16 l 0.24,0.24 0.04,-0.04 0.28,0.16 q 0.44,0.28 0.88,1.08 0.48,0.76 0.48,1.68 0,0.6 -0.2,1.2 -0.16,0.56 -0.4,0.92 -0.6,0.8 -1.32,1.44 -0.68,0.64 -1.24,1.08 -0.2,0.12 -0.28,0.2 -0.08,0.08 -0.24,0.08 -0.12,0.04 -0.2,0.12 -0.56,0.32 -1.24,0.56 -0.68,0.28 -1.2,0.52 -0.24,0.08 -0.4,0.08 -0.16,0.04 -0.32,0.08 -0.04,0 -0.16,0.04 -0.08,0.08 -0.08,0.04 l -0.28,0.2 q -0.04,-0.04 -0.12,-0.04 -0.16,0 -0.36,0.16 -0.16,0.16 -0.32,0.12 h -0.04 q -0.12,0 -0.32,0.04 -0.16,0.08 -0.24,0 l -0.52,0.2 -0.08,-0.2 q -0.04,0 -0.12,0.08 -0.04,0.12 -0.12,0.12 0,0 -0.16,-0.08 -0.16,-0.08 -0.24,0.08 l -0.44,0.12 q -0.04,-0.16 -0.24,-0.16 -0.16,0 -0.28,0.12 l -0.32,-0.16 v 0.04 l -0.32,-0.04 z m 15.76002,-2.8 q -1,0 -1.76,-0.56 -0.76,-0.56 -0.76,-1.92 0,-0.52 0.12,-1.04 0.12,-0.56 0.28,-1.08 0.08,-0.52 0.24,-0.92 0.04,-0.16 0.04,-0.16 0.04,-0.04 0.2,-0.12 l 0.32,-0.48 v -0.16 q -0.04,0 -0.04,0 0,-0.04 0,-0.04 0,-0.12 0.2,-0.28 0.2,-0.16 0.2,-0.16 0.04,-0.2 0.12,-0.2 0.08,0 0.2,-0.12 h 0.44 v -0.08 q 0,-0.2 -0.2,-0.16 -0.16,0 -0.16,-0.04 0,-0.04 0.12,-0.16 0.16,-0.16 0.2,-0.2 0.12,-0.16 0.2,-0.28 0.08,-0.16 0.24,-0.24 0.72,-0.88 0.88,-1.12 0.2,-0.24 0.4,-0.36 0.08,0 0.12,0.08 0.08,0.04 0,0.12 0.08,0.12 0.12,0.04 0.08,-0.08 0.08,-0.08 l 0.16,-0.08 q -0.08,-0.08 -0.08,-0.2 0,-0.2 0.08,-0.32 0.08,-0.16 0.28,-0.32 0.24,-0.16 0.24,-0.2 0.24,-0.08 0.36,-0.16 0.16,-0.08 0.32,-0.08 0.28,0 0.56,0.2 0.76,0.4 1.28,0.8 0.52,0.4 0.52,1.12 0,0.76 -0.64,1.32 -0.6,0.52 -1.48,0.88 -0.88,0.36 -1.76,0.6 -0.84,0.2 -1.32,0.32 -0.28,0.04 -0.28,0.24 0.04,0.16 -0.04,0.36 l -0.28,0.44 -0.24,0.56 -0.2,0.36 q -0.28,0.24 -0.2,0.36 0.08,0.12 0.28,-0.04 0.04,0.04 0.04,0.12 0,0.16 -0.08,0.4 -0.08,0.2 -0.12,0.32 -0.04,0.16 0,0.16 0.08,-0.04 0.08,0.16 l 0.04,0.56 q 0.24,0.76 1.08,0.88 0.08,0 0.16,0.04 0.12,0 0.2,0 0.72,0 0.76,-0.12 0.08,-0.12 0.2,-0.16 0.36,-0.08 0.6,-0.16 0.28,-0.08 0.56,-0.24 0.48,-0.2 0.92,-0.52 0.44,-0.32 0.92,-0.64 l 0.4,-0.28 q 0.04,-0.08 0,-0.12 -0.04,-0.04 0,-0.08 0.08,-0.04 0.12,0 0.08,0 0.12,-0.04 0.08,-0.04 0.16,-0.12 0.08,-0.12 0.16,-0.2 0.08,-0.08 0.08,-0.16 0.04,-0.08 0.12,-0.16 0.32,-0.32 0.64,-0.68 0.36,-0.36 0.6,-0.64 0.28,-0.4 0.44,-0.4 0.08,0 0.08,0.08 0,0.2 -0.28,0.6 -0.68,1 -1.56,1.96 -0.88,0.92 -1.92,1.68 -0.76,0.52 -1.8,0.92 -1.04,0.4 -2.08,0.4 z m 0.6,-6.44 q 0.6,-0.04 1.56,-0.32 0.96,-0.32 1.6,-0.84 0.68,-0.56 0.68,-1.24 0,-0.64 -0.68,-1.24 -0.56,0.4 -1.24,1.16 -0.64,0.72 -1.16,1.44 -0.52,0.68 -0.76,1.04 z m 6.12,6.48 q -0.24,0 -0.24,-0.28 0,-0.2 0.12,-0.48 0.32,-0.68 0.72,-1.92 0.44,-1.24 1.08,-2.12 0.2,-0.44 0.6,-1.08 0.44,-0.68 0.84,-1.6 v -0.2 q 0,-0.12 0,-0.2 0.04,-0.12 0.08,-0.24 0.16,-0.32 0.28,-0.44 0.16,-0.12 0.32,-0.44 0,-0.08 0,-0.16 0.04,-0.08 0.08,-0.16 -0.08,0.08 -0.04,-0.12 -0.08,0 0.16,-0.4 0.16,-0.36 0.24,-0.4 h 0.04 q 0.16,-0.24 0.28,-0.4 0.12,-0.2 0.08,-0.24 v -0.08 q 0,-0.28 0.16,-0.52 0.2,-0.24 0.36,-0.52 0.12,-0.16 0.2,-0.16 0.08,0 0.08,0.04 0.04,0 0.08,0 0.12,0 0.12,-0.2 0,-0.08 -0.04,-0.2 0,-0.12 -0.04,-0.28 0.04,-0.2 0.32,-0.32 l 0.12,-0.04 q 0.2,-0.84 0.48,-1.12 0.08,-0.08 0.16,-0.16 0.08,-0.08 0.16,-0.16 0.48,-0.52 0.72,-1.12 0.08,-0.16 0.2,-0.24 0.16,-0.12 0.28,-0.28 0.08,-0.12 0.04,-0.24 0,-0.16 0.04,-0.28 0.2,-0.32 0.28,-0.36 0.08,-0.04 0.16,-0.08 0.12,-0.08 0.4,-0.36 0.12,-0.2 0.24,-0.4 0.16,-0.2 0.32,-0.4 0.24,-0.28 0.52,-0.4 0.28,-0.12 0.56,-0.36 0.08,-0.08 0.08,-0.24 0,-0.2 0.08,-0.28 1.4,-1.12 3,-1.88 1.64,-0.76 2.52,-0.76 0.32,0 0.6,0.04 0.32,0.04 0.6,0.12 h 0.08 q 0.2,0 0.4,0.08 0.2,0.08 0.36,0.16 0.16,0 0.4,0.08 0.2,0.08 0.24,0.24 0.04,0.16 -0.08,0.24 -0.04,0.04 -0.12,0 -0.08,-0.04 -0.16,-0.04 -0.08,0 -0.16,-0.08 -0.08,-0.08 -0.16,-0.12 -0.16,0 -0.36,0.04 -0.16,0.04 -0.36,0.04 h -0.12 q -0.28,0 -0.4,-0.08 -0.08,-0.12 -0.4,-0.04 -0.04,0 -0.24,0.04 -0.2,0.04 -0.28,0.04 -1.44,0.36 -2.52,1.2 -1.08,0.8 -1.92,1.8 -0.8,1 -1.56,1.92 -0.36,0.72 -0.72,1.16 -0.04,0.04 -0.08,-0.04 -0.04,-0.08 -0.08,0 -0.12,0.12 -0.2,0.4 -0.04,0.24 -0.16,0.4 -0.04,0.04 -0.08,-0.04 -0.04,-0.08 -0.12,0 -0.04,0.04 -0.12,0.32 -0.04,0.24 -0.12,0.32 -0.48,0.64 -1.04,1.24 -0.56,0.6 -1.12,1.4 -0.8,1.24 -1.52,2.44 -0.72,1.2 -1.52,2.64 -0.28,0.48 -0.44,0.88 -0.12,0.36 -0.28,0.68 -0.08,0.12 -0.08,0.32 0,0.28 0.32,0.28 0.24,0 0.48,-0.12 l 0.4,-0.16 q 0.96,-0.88 2,-1.48 0.04,0 0.04,0 0.04,-0.04 0.08,-0.04 0.12,0 0.16,0.16 0.04,0.12 -0.08,0.2 -1.16,0.64 -2.16,1.64 -0.04,0.08 -0.08,0.16 -0.04,0.08 -0.12,0.16 -0.08,0.08 -0.24,0.28 -0.12,0.2 -0.12,0.24 -0.04,0.12 -0.12,0.08 -0.04,-0.04 -0.24,0.12 -0.04,0.04 -0.08,0.16 0,0.12 -0.04,0.2 -0.04,0.12 -0.16,0.2 -0.08,0.04 -0.08,0.08 -0.04,0.16 -0.16,0.2 -0.08,0 -0.16,0.08 -0.04,0.04 0,0.12 0.04,0.08 -0.04,0.16 -0.04,0.12 -0.08,0.12 -0.04,-0.04 -0.12,0.04 -0.16,0.16 -0.24,0.16 -0.24,0.08 -0.2,0.12 0.08,0.04 0.12,0.08 0.08,0 -0.12,0.12 -0.08,0.04 -0.16,0.24 -0.08,0.16 -0.16,0.24 -0.12,0.08 -0.24,0.12 -0.08,0.04 -0.2,0.16 -0.36,0.36 -0.6,0.36 z m 9.08002,-0.04 q -1,0 -1.76,-0.56 -0.76,-0.56 -0.76,-1.92 0,-0.52 0.12,-1.04 0.12,-0.56 0.28,-1.08 0.08,-0.52 0.24,-0.92 0.04,-0.16 0.04,-0.16 0.04,-0.04 0.2,-0.12 l 0.32,-0.48 v -0.16 q -0.04,0 -0.04,0 0,-0.04 0,-0.04 0,-0.12 0.2,-0.28 0.2,-0.16 0.2,-0.16 0.04,-0.2 0.12,-0.2 0.08,0 0.2,-0.12 h 0.44 v -0.08 q 0,-0.2 -0.2,-0.16 -0.16,0 -0.16,-0.04 0,-0.04 0.12,-0.16 0.16,-0.16 0.2,-0.2 0.12,-0.16 0.2,-0.28 0.08,-0.16 0.24,-0.24 0.72,-0.88 0.88,-1.12 0.2,-0.24 0.4,-0.36 0.08,0 0.12,0.08 0.08,0.04 0,0.12 0.08,0.12 0.12,0.04 0.08,-0.08 0.08,-0.08 l 0.16,-0.08 q -0.08,-0.08 -0.08,-0.2 0,-0.2 0.08,-0.32 0.08,-0.16 0.28,-0.32 0.24,-0.16 0.24,-0.2 0.24,-0.08 0.36,-0.16 0.16,-0.08 0.32,-0.08 0.28,0 0.56,0.2 0.76,0.4 1.28,0.8 0.52,0.4 0.52,1.12 0,0.76 -0.64,1.32 -0.6,0.52 -1.48,0.88 -0.88,0.36 -1.76,0.6 -0.84,0.2 -1.32,0.32 -0.28,0.04 -0.28,0.24 0.04,0.16 -0.04,0.36 l -0.28,0.44 -0.24,0.56 -0.2,0.36 q -0.28,0.24 -0.2,0.36 0.08,0.12 0.28,-0.04 0.04,0.04 0.04,0.12 0,0.16 -0.08,0.4 -0.08,0.2 -0.12,0.32 -0.04,0.16 0,0.16 0.08,-0.04 0.08,0.16 l 0.04,0.56 q 0.24,0.76 1.08,0.88 0.08,0 0.16,0.04 0.12,0 0.2,0 0.72,0 0.76,-0.12 0.08,-0.12 0.2,-0.16 0.36,-0.08 0.6,-0.16 0.28,-0.08 0.56,-0.24 0.48,-0.2 0.92,-0.52 0.44,-0.32 0.92,-0.64 l 0.4,-0.28 q 0.04,-0.08 0,-0.12 -0.04,-0.04 0,-0.08 0.08,-0.04 0.12,0 0.08,0 0.12,-0.04 0.08,-0.04 0.16,-0.12 0.08,-0.12 0.16,-0.2 0.08,-0.08 0.08,-0.16 0.04,-0.08 0.12,-0.16 0.32,-0.32 0.64,-0.68 0.36,-0.36 0.6,-0.64 0.28,-0.4 0.44,-0.4 0.08,0 0.08,0.08 0,0.2 -0.28,0.6 -0.68,1 -1.56,1.96 -0.88,0.92 -1.92,1.68 -0.76,0.52 -1.8,0.92 -1.04,0.4 -2.08,0.4 z m 0.6,-6.44 q 0.6,-0.04 1.56,-0.32 0.96,-0.32 1.6,-0.84 0.68,-0.56 0.68,-1.24 0,-0.64 -0.68,-1.24 -0.56,0.4 -1.24,1.16 -0.64,0.72 -1.16,1.44 -0.52,0.68 -0.76,1.04 z m 6.04,6.48 q -0.24,0 -0.24,-0.28 0,-0.2 0.12,-0.48 0.32,-0.68 0.76,-1.92 0.44,-1.24 1.08,-2.12 l 1.56,-3.48 q 0,0 -0.08,-0.04 -0.08,-0.08 -0.08,-0.16 -0.24,-0.16 -0.52,-0.44 -0.24,-0.32 -0.04,-0.64 0.08,-0.08 0.12,-0.08 0.04,0 0.04,0 v -0.08 q 0,-0.16 0.12,-0.2 0.16,-0.04 0.2,-0.12 0.08,-0.56 0.92,-0.84 0.88,-0.28 1.56,-0.28 0.68,0 0.68,0.2 0,0.12 -0.24,0.28 -0.08,0.08 -0.4,0.36 -0.28,0.28 -0.52,0.68 l -0.28,0.48 -0.28,0.36 q -0.64,1.16 -1.04,1.96 -0.4,0.8 -0.96,2.04 -0.12,0.24 -0.12,0.4 0,0.2 0.16,0.2 0.08,0 0.16,-0.04 0.12,-0.08 0.24,-0.12 0.32,-0.2 0.52,-0.36 0.24,-0.2 0.52,-0.4 0.12,-0.12 0.2,0 0.08,0.08 0,0.24 -0.16,0.32 -0.24,0.4 -0.04,0.04 -0.12,0.08 -0.08,0.04 -0.36,0.36 l -0.16,0.32 q -0.08,0.08 -0.2,0.32 -0.08,0.2 -0.08,0.24 0,0.08 -0.08,0.08 -0.08,-0.04 -0.24,0.12 -0.04,0.04 -0.04,0.16 0.04,0.12 -0.04,0.2 -0.04,0.12 -0.12,0.2 -0.08,0.04 -0.08,0.08 -0.04,0.16 -0.16,0.2 -0.08,0 -0.16,0.08 -0.04,0 -0.04,0.08 0,0.32 -0.08,0.28 -0.08,-0.04 -0.16,0.08 -0.08,0.16 -0.2,0.16 -0.24,0.08 -0.2,0.12 0.04,0.04 0.12,0.08 0.08,0 -0.12,0.12 -0.12,0.04 -0.2,0.24 -0.08,0.16 -0.16,0.24 -0.08,0.08 -0.2,0.12 -0.12,0.04 -0.2,0.16 -0.36,0.36 -0.64,0.36 z m 11.92,-0.32 q -0.16,0 -0.28,0 -0.12,-0.04 -0.24,-0.08 -0.4,-0.08 -0.72,-0.24 -0.28,-0.16 -0.48,-0.6 -0.04,-0.2 -0.2,-0.52 -0.12,-0.32 -0.16,-0.6 -0.04,-0.2 -0.04,-0.48 -0.04,-0.2 -0.04,-0.52 -0.08,-0.4 -0.08,-0.72 0.04,-0.32 0.04,-0.76 0,-0.44 0.04,-0.64 0.08,-0.36 0.08,-0.36 0,-0.04 0,-0.4 0.04,-0.48 0.04,-1 0,-0.52 0.04,-0.84 0.12,-1.2 -0.48,-1.2 -0.24,0 -0.64,0.2 -0.04,0.12 -0.16,0.16 -0.08,0 -0.24,0.08 l -0.2,0.12 q 0,0.04 -0.08,0.04 -0.08,-0.04 -0.08,0.04 0.04,0.16 -0.04,0.2 -0.04,0.04 -0.12,-0.04 l -0.44,0.32 q 0,0.04 -0.12,0.16 l -0.04,0.04 q -0.16,0.16 -0.28,0.16 l -0.12,0.12 q 0,0.04 -0.08,0.16 -0.04,0.08 -0.2,0.04 l -0.2,0.2 q -0.16,0.24 -0.28,0.28 -0.08,0.04 -0.2,0.08 l -0.32,0.4 -0.16,0.04 q 0,0.16 -0.36,0.48 -0.32,0.32 -0.44,0.44 -0.12,0.12 -0.24,0.12 -0.08,0 -0.08,-0.08 0,-0.04 0.2,-0.32 0.16,-0.16 0.48,-0.6 0.36,-0.44 0.4,-0.4 0.2,-0.2 0.28,-0.4 0.08,-0.24 0.28,-0.4 0,0.04 0,0.08 0.04,0 0.04,0 0.08,0 0.2,-0.2 0.12,-0.24 0.16,-0.2 l 0.68,-0.6 q 0,-0.04 0.2,-0.16 0.16,-0.08 0.2,-0.08 0.04,0 0.2,-0.24 l 0.28,-0.2 q 0.04,-0.08 0.08,0.04 0.08,0.08 0.12,0.04 l 0.12,-0.28 q 0.08,-0.12 0.24,-0.2 0.2,-0.12 0.4,-0.24 0.48,-0.48 0.72,-0.48 h 0.16 q 0.52,-0.2 0.96,-0.2 0.64,0 1,0.48 0.08,0.12 0.16,0.44 0.08,0.04 0.04,0.12 0,0.04 0.04,0.12 0.04,0.08 0.16,0.2 0.12,0.08 0.12,0.2 v 0.08 q 0,0.16 -0.2,0.28 0.2,0.16 0.16,0.2 0,0 -0.04,0.12 l -0.08,0.56 q -0.04,0.28 -0.12,0.44 -0.08,0.12 -0.16,0.44 0.16,0.24 0,0.32 h -0.08 l -0.04,0.16 q 0,0.08 0.08,0.16 l -0.12,0.24 q 0.04,-0.04 0.04,0 0.04,0 0.04,0 -0.04,0.08 -0.12,0.32 -0.08,0.2 -0.12,0.32 -0.04,0.2 -0.16,0.2 -0.12,0 -0.08,0.2 0.04,0.04 0.04,0.28 0.04,0.2 -0.04,0.2 l -0.08,0.48 v 0.12 q 0,0.2 -0.08,0.4 -0.04,0.2 -0.08,0.4 -0.04,0.2 -0.08,0.44 0,0.2 0,0.4 0,0.16 0,0.36 0.04,0.16 0.08,0.32 0,0.04 0.12,0.24 0.12,0.2 0.12,0.24 l 0.12,0.12 q 0.08,0.04 0.24,0 0.2,-0.04 0.28,0.04 0.36,0.04 0.92,-0.36 0.6,-0.44 1.08,-0.96 0.12,-0.12 0.24,-0.12 0.08,0 0.12,0.12 0.04,0.12 -0.08,0.32 -0.64,0.92 -1.2,1.28 -0.56,0.32 -1.04,0.32 z m 9.15997,-12.28 q -0.12,0 -0.24,-0.08 -0.08,-0.08 -0.24,-0.2 -0.08,-0.04 -0.2,-0.08 -0.08,-0.08 -0.08,-0.24 -0.04,-0.04 -0.16,-0.04 -0.2,0 -0.2,-0.28 0,-0.32 0.32,-0.44 l 0.2,-0.16 v 0.04 l 0.16,-0.2 h 0.08 q 0.24,0 0.32,-0.24 0.12,-0.24 0.48,-0.32 0.24,-0.08 0.4,0.04 0.16,0.12 0.4,0.12 0.24,0 0.52,-0.16 l 0.6,-0.12 q 0.12,0 0.12,0.08 0,0.08 -0.24,0.2 -0.2,0.12 -0.28,0.2 l -0.04,0.04 -0.04,0.08 -0.16,0.2 q -0.24,0.28 -0.56,0.68 -0.28,0.36 -0.6,0.6 -0.36,0.28 -0.56,0.28 z m -6.08,12.6 q -0.24,0 -0.24,-0.28 0,-0.2 0.12,-0.48 0.32,-0.68 0.72,-1.92 0.44,-1.24 1.08,-2.12 0.44,-0.88 0.8,-1.72 0.4,-0.88 0.76,-1.76 0,0 -0.08,-0.04 -0.04,-0.08 -0.04,-0.16 -0.24,-0.16 -0.52,-0.44 -0.24,-0.32 -0.04,-0.64 0.08,-0.08 0.12,-0.08 0.04,0 0.04,0 0,-0.04 -0.04,-0.04 0,-0.04 0,-0.04 0,-0.16 0.16,-0.2 0.16,-0.04 0.16,-0.12 0.08,-0.56 0.96,-0.84 0.88,-0.28 1.56,-0.28 0.68,0 0.68,0.2 0,0.08 -0.24,0.28 -0.12,0.08 -0.4,0.36 -0.28,0.28 -0.52,0.68 l -0.32,0.48 q -0.04,0.08 -0.12,0.2 -0.04,0.08 -0.12,0.16 -0.64,1.16 -1.04,1.96 -0.4,0.8 -0.96,2.04 -0.08,0.24 -0.08,0.32 0,0.28 0.32,0.28 0.24,0 0.48,-0.12 l 0.4,-0.16 q 0.96,-0.88 2,-1.48 0.04,0 0.04,0 0.04,-0.04 0.08,-0.04 0.12,0 0.16,0.16 0.04,0.12 -0.08,0.2 -1.16,0.64 -2.16,1.64 -0.04,0.08 -0.08,0.16 -0.04,0.08 -0.12,0.16 -0.08,0.08 -0.24,0.28 -0.12,0.2 -0.12,0.24 -0.04,0.12 -0.12,0.08 -0.04,-0.04 -0.24,0.12 -0.04,0.04 -0.08,0.16 0,0.12 -0.04,0.2 -0.04,0.12 -0.16,0.2 -0.08,0.04 -0.08,0.08 -0.04,0.16 -0.16,0.2 -0.08,0 -0.16,0.08 -0.04,0.04 0,0.12 0.04,0.08 -0.04,0.16 -0.04,0.12 -0.08,0.12 -0.04,-0.04 -0.12,0.04 -0.16,0.16 -0.24,0.16 -0.24,0.08 -0.2,0.12 0.08,0.04 0.12,0.08 0.08,0 -0.12,0.12 -0.08,0.04 -0.16,0.24 -0.08,0.16 -0.16,0.24 -0.12,0.08 -0.24,0.12 -0.08,0.04 -0.2,0.16 -0.36,0.36 -0.6,0.36 z m 8.03999,0 q -0.24,0 -0.24,-0.28 0,-0.2 0.12,-0.48 0.32,-0.68 0.72,-1.92 0.44,-1.24 1.08,-2.12 l 2,-4.12 q -0.24,0 -0.48,0.12 -0.2,0.12 -0.2,0.2 0,0.16 -0.44,0.32 -0.44,0.16 -0.48,0.2 -0.6,0.16 -1.12,0.36 -0.4,0.44 -0.8,0.88 -0.36,0.44 -0.68,0.88 -0.04,0.04 -0.08,0.04 -0.36,0.4 -0.6,0.6 -0.24,0.2 -0.52,0.36 -0.16,0.12 -0.32,0.08 -0.2,-0.08 -0.04,-0.16 0.2,-0.08 0.64,-0.56 0.44,-0.48 0.68,-0.72 0.2,-0.12 0.12,0 -0.04,0.12 0.12,-0.04 l 1,-1.28 0.04,-0.04 q -0.2,-0.12 -0.2,-0.64 0,-0.4 0.16,-0.64 0,-0.04 0.08,-0.04 l 0.84,-0.24 q 0.12,0 0.16,-0.04 0.08,-0.08 0.16,-0.2 0.12,-0.16 0.28,-0.4 l 0.48,-0.64 0.32,-0.44 q 0,-0.12 0.16,-0.28 0.2,-0.2 0.32,-0.28 0.16,-0.24 0.2,-0.36 0.08,-0.16 0.24,-0.4 0,-0.04 0.12,-0.04 0.12,-0.04 0.12,-0.08 0.04,-0.4 0.12,-0.36 0.12,0 0.12,-0.12 0,-0.12 0.16,-0.2 l 0.2,-0.24 q 0,-0.04 0.12,-0.16 v -0.04 q 0,-0.08 0,-0.2 0,-0.12 0.08,-0.24 0.08,-0.08 0.12,-0.08 0.04,0 0.04,0 0,-0.04 -0.04,-0.04 0,-0.04 0,-0.04 0,-0.16 0.16,-0.2 0.16,-0.04 0.16,-0.12 0.08,-0.56 0.96,-0.84 0.88,-0.28 1.56,-0.28 0.68,0 0.68,0.2 0,0.08 -0.24,0.28 -0.12,0.04 -0.4,0.36 -0.28,0.28 -0.52,0.68 l -0.32,0.48 q -0.04,0.08 -0.12,0.2 -0.04,0.08 -0.12,0.16 -0.28,0.48 -0.76,1.36 -0.44,0.84 -0.96,1.88 l 1.04,-0.12 q 0.12,0 0.08,0.04 0,0.04 0.12,0 0.2,0 0.28,-0.04 0.08,-0.08 0.28,-0.12 0.32,-0.04 0.72,-0.04 0.44,-0.04 0.68,-0.04 0.16,0 0.4,0 0.24,0 0.36,0.04 0.08,0 0.04,0.08 0,0.04 0.04,0.04 0.08,0 0.12,-0.04 0.08,-0.04 0.16,-0.04 0.04,-0.04 0.12,0 0.12,0 0.16,0 l 0.4,0.12 q 0.24,0.04 0.24,0.28 0.04,0.24 -0.2,0.16 -0.16,-0.08 -0.28,-0.08 h -1 q -0.28,0 -0.52,0 -0.24,0 -0.48,0.04 -0.08,0.04 -0.08,-0.08 0.04,-0.12 -0.04,-0.12 -0.04,0 -0.12,0.12 -0.08,0.08 -0.12,0.08 l -0.2,0.12 q -0.64,0.16 -1.36,0.36 -0.72,0.16 -1.4,0.36 -0.6,1.24 -1.16,2.36 -0.52,1.08 -0.8,1.68 -0.08,0.24 -0.08,0.28 0,0.32 0.36,0.32 0.24,0 0.48,-0.12 l 0.4,-0.16 q 0.96,-0.88 2,-1.48 0.04,0 0.04,0 0.04,-0.04 0.08,-0.04 0.12,0 0.16,0.16 0.04,0.12 -0.08,0.2 -1.16,0.64 -2.16,1.64 -0.04,0.08 -0.08,0.16 -0.04,0.08 -0.12,0.16 -0.08,0.08 -0.24,0.28 -0.12,0.2 -0.12,0.24 -0.04,0.12 -0.12,0.08 -0.04,-0.04 -0.24,0.12 -0.04,0.04 -0.08,0.16 0,0.12 -0.04,0.2 -0.08,0.12 -0.16,0.2 -0.08,0.04 -0.08,0.08 -0.04,0.16 -0.16,0.2 -0.08,0 -0.16,0.08 -0.04,0 -0.04,0.04 0,0 0,0 0,0.36 -0.08,0.32 -0.08,-0.04 -0.12,0.08 -0.16,0.16 -0.24,0.16 -0.24,0.08 -0.2,0.12 0.08,0.04 0.12,0.08 0.08,0 -0.12,0.12 -0.08,0.04 -0.16,0.24 -0.08,0.16 -0.16,0.24 -0.12,0.08 -0.24,0.12 -0.12,0.04 -0.2,0.16 -0.36,0.36 -0.6,0.36 z m 2.28,-9.4 q 0.16,-0.04 0.28,-0.08 0.16,-0.04 0.32,-0.12 l 1.2,-0.2 q 0.48,-0.96 0.84,-1.72 0.36,-0.8 0.52,-1.16 0,0 -0.08,-0.04 -0.04,-0.08 -0.04,-0.16 -0.08,-0.04 -0.2,-0.12 -0.08,-0.08 -0.16,-0.12 l -0.36,0.36 -0.44,0.6 q 0,0.04 -0.12,0.08 -0.08,0 -0.08,0.04 0,0.12 -0.12,0.24 -0.08,0.12 -0.16,0.08 l -0.16,0.4 q 0,0.12 -0.12,0.2 l -0.28,0.36 q 0,0.04 -0.04,0.08 0,0 0,0.08 -0.04,0.08 -0.12,0.2 -0.08,0.12 -0.2,0.24 -0.04,0 -0.04,0.04 0,0 -0.04,0 l -0.12,0.24 q -0.16,0.08 -0.2,0.08 l -0.04,0.08 q 0,0.24 -0.04,0.32 z m 7.59997,9.36 q -1,0 -1.76,-0.56 -0.76,-0.56 -0.76,-1.92 0,-0.52 0.12,-1.04 0.12,-0.56 0.28,-1.08 0.08,-0.52 0.24,-0.92 0.04,-0.16 0.04,-0.16 0.04,-0.04 0.2,-0.12 l 0.32,-0.48 v -0.16 q -0.04,0 -0.04,0 0,-0.04 0,-0.04 0,-0.12 0.2,-0.28 0.2,-0.16 0.2,-0.16 0.04,-0.2 0.12,-0.2 0.08,0 0.2,-0.12 h 0.44 v -0.08 q 0,-0.2 -0.2,-0.16 -0.16,0 -0.16,-0.04 0,-0.04 0.12,-0.16 0.16,-0.16 0.2,-0.2 0.12,-0.16 0.2,-0.28 0.08,-0.16 0.24,-0.24 0.72,-0.88 0.88,-1.12 0.2,-0.24 0.4,-0.36 0.08,0 0.12,0.08 0.08,0.04 0,0.12 0.08,0.12 0.12,0.04 0.08,-0.08 0.08,-0.08 l 0.16,-0.08 q -0.08,-0.08 -0.08,-0.2 0,-0.2 0.08,-0.32 0.08,-0.16 0.28,-0.32 0.24,-0.16 0.24,-0.2 0.24,-0.08 0.36,-0.16 0.16,-0.08 0.32,-0.08 0.28,0 0.56,0.2 0.76,0.4 1.28,0.8 0.52,0.4 0.52,1.12 0,0.76 -0.64,1.32 -0.6,0.52 -1.48,0.88 -0.88,0.36 -1.76,0.6 -0.84,0.2 -1.32,0.32 -0.28,0.04 -0.28,0.24 0.04,0.16 -0.04,0.36 l -0.28,0.44 -0.24,0.56 -0.2,0.36 q -0.28,0.24 -0.2,0.36 0.08,0.12 0.28,-0.04 0.04,0.04 0.04,0.12 0,0.16 -0.08,0.4 -0.08,0.2 -0.12,0.32 -0.04,0.16 0,0.16 0.08,-0.04 0.08,0.16 l 0.04,0.56 q 0.24,0.76 1.08,0.88 0.08,0 0.16,0.04 0.12,0 0.2,0 0.72,0 0.76,-0.12 0.08,-0.12 0.2,-0.16 0.36,-0.08 0.6,-0.16 0.28,-0.08 0.56,-0.24 0.48,-0.2 0.92,-0.52 0.44,-0.32 0.92,-0.64 l 0.4,-0.28 q 0.04,-0.08 0,-0.12 -0.04,-0.04 0,-0.08 0.08,-0.04 0.12,0 0.08,0 0.12,-0.04 0.08,-0.04 0.16,-0.12 0.08,-0.12 0.16,-0.2 0.08,-0.08 0.08,-0.16 0.04,-0.08 0.12,-0.16 0.32,-0.32 0.64,-0.68 0.36,-0.36 0.6,-0.64 0.28,-0.4 0.44,-0.4 0.08,0 0.08,0.08 0,0.2 -0.28,0.6 -0.68,1 -1.56,1.96 -0.88,0.92 -1.92,1.68 -0.76,0.52 -1.8,0.92 -1.04,0.4 -2.08,0.4 z m 0.6,-6.44 q 0.6,-0.04 1.56,-0.32 0.96,-0.32 1.6,-0.84 0.68,-0.56 0.68,-1.24 0,-0.64 -0.68,-1.24 -0.56,0.4 -1.24,1.16 -0.64,0.72 -1.16,1.44 -0.52,0.68 -0.76,1.04 z"
       id="text1"
       aria-label="Selenite" />
  </g>
</svg>
